<svg xmlns="http://www.w3.org/2000/svg" viewBox="68 140 262 95">
  <defs>
    <linearGradient id="blueGradient" x1="0.1" y1="0.1" x2="0.9" y2="0.9">
      <stop offset="0%" stop-color="#0066ff" />
      <stop offset="100%" stop-color="#003399" />
    </linearGradient>
  </defs>
  
  <g fill="url(#blueGradient)">
    <!-- S letter -->
    <path d="M111.5 144.4C108.8 145.4 105.6 148 103.9 150.3C100 155.8 100.7 158.3 109.3 169.4C123.6 188 127.4 197.1 127.4 213.2C127.4 223.8 127.1 224.7 125.4 218.6C122 206.1 116.7 196.3 109.6 189.2C93 172.5 72 173.8 71.3 191.4L71.1 195.5 72.5 197C74.3 199.1 75.8 199.7 84.5 201.6C111.5 207.5 121 214.3 125 230.1C126 233.9 126.4 233.6 129.5 227.1C144.6 196.2 145.4 163 131.6 148.3C127.9 144.3 116.9 142.2 111.5 144.4" />
    
    <!-- m letter parts -->
    <path d="M154.6 169.1C149.8 172.1 151.9 179.6 157.5 179.6C160.5 179.6 163.2 176.9 163.2 173.8C163.2 169.6 158.2 166.9 154.6 169.1" />
    <path d="M148.9 184.4C144.8 186.9 145.7 193.7 150.3 194.9L152 195.4 152 212C152 223.8 152.2 229 152.5 230C153.7 233.4 159.4 234.4 162.1 231.7L163.4 230.4 163.5 209C163.6 185.4 163.7 185.7 161.2 184.3C159.4 183.2 150.7 183.3 148.9 184.4" />
    <path d="M169.3 184.4C168 185.2 166.8 187.2 166.8 188.6C166.8 189.3 181.7 228.6 182.6 230.4C184.4 233.8 189.8 234.7 192.1 232C193.3 230.6 209.2 190.3 209.2 188.7C209.2 185.7 206.6 183.5 203.1 183.7C198.9 184 199.1 183.6 192 204.2C188.3 215.2 188 215.7 187.6 214.6C187.3 213.9 186 210.1 184.6 206C179.4 190.6 177.5 185.7 176.6 184.8C175.1 183.4 171.1 183.2 169.3 184.4" />
    
    <!-- R letter -->
    <path d="M215.8 184C215.4 184.2 214.6 184.8 214 185.4L213 186.5 212.9 202.5C212.7 223 213.3 226.1 218.3 229.9C222.2 232.8 223.1 233 237.6 233.1C254 233.3 254.9 233 255 227.8C255 222.1 254.4 221.8 239.4 221.6C225 221.4 224.4 221.1 224.4 215.8V214H233.8C246.4 214 247.5 213.5 247.1 207.8C246.8 202.8 245.7 202.4 233.6 202.4H224.4V198.8V195.2H237.9C250 195 251.5 194.9 252.5 194.3C255.9 192.1 255.7 185.6 252.2 184.2C250.6 183.5 217.3 183.4 215.8 184" />
    
    <!-- k letter -->
    <path d="M265.7 184.2C262.7 185.5 262.8 184.9 262.8 208.3C262.8 233.5 262.7 233.2 268.7 233.2C274.2 233.2 274.4 232.5 274.4 212V195.2H280.1C289.9 195.2 289.3 194.2 289.6 214.5L289.8 230.4 291.1 231.7C292.9 233.5 296.6 233.8 298.8 232.3C301.2 230.7 301.2 230.2 301.1 211.7L301 195.2H306.8C316.7 195.2 316.1 194.2 316.4 214.5L316.6 230.4 317.9 231.7C320.6 234.4 326.1 233.5 327.5 230.1C328.5 227.6 328.1 197.1 326.9 193.7C325.4 189.3 322.2 186 317.8 184.5C315 183.5 267.8 183.3 265.7 184.2" />
  </g>
</svg>
